<svg width="27" height="27" viewBox="0 0 27 27" fill="none" xmlns="http://www.w3.org/2000/svg">
<path d="M7.61069 12.9718C7.61069 13.3043 7.64444 13.5743 7.70856 13.7734C7.77944 13.9708 7.87056 14.1868 7.99544 14.4214C8.03529 14.4834 8.05692 14.5553 8.05788 14.629C8.05788 14.7184 8.00388 14.8095 7.88913 14.899L7.32213 15.277C7.25406 15.3261 7.17311 15.3543 7.08925 15.358C6.99813 15.358 6.90869 15.3141 6.81925 15.2331C6.69796 15.1026 6.58947 14.9607 6.49525 14.8095C6.39543 14.6364 6.3031 14.459 6.2185 14.278C5.5165 15.1065 4.63731 15.5216 3.57756 15.5216C2.82325 15.5216 2.22081 15.304 1.78206 14.872C1.34162 14.44 1.11719 13.8628 1.11719 13.1423C1.11719 12.3761 1.38719 11.7551 1.93394 11.286C2.48238 10.8169 3.20969 10.584 4.13444 10.584C4.43819 10.584 4.75375 10.611 5.08619 10.6549C5.41863 10.7005 5.76119 10.773 6.11894 10.854V10.1959C6.11894 9.51077 5.9755 9.03321 5.69706 8.75477C5.41019 8.47465 4.92419 8.33965 4.23231 8.33965C3.91844 8.33965 3.59613 8.37677 3.26369 8.45777C2.9334 8.53638 2.60914 8.63845 2.29338 8.76321C2.19143 8.80937 2.08658 8.84883 1.9795 8.88134C1.9331 8.89667 1.88486 8.90575 1.83606 8.90834C1.7095 8.90834 1.64706 8.81721 1.64706 8.62821V8.18609C1.64706 8.04265 1.66394 7.93296 1.7095 7.87221C1.7775 7.78942 1.86428 7.72404 1.96263 7.68152C2.27481 7.51952 2.65281 7.38452 3.09325 7.27652C3.532 7.1584 3.99944 7.10609 4.49388 7.10609C5.56206 7.10609 6.34338 7.34909 6.84625 7.83509C7.34069 8.32109 7.59213 9.06021 7.59213 10.0525V12.9718H7.609H7.61069ZM3.964 14.3404C4.25931 14.3404 4.56475 14.2864 4.88875 14.1784C5.21275 14.0704 5.49963 13.8713 5.74094 13.6013C5.88564 13.4355 5.99016 13.2386 6.04638 13.0258C6.10038 12.8081 6.1375 12.5483 6.1375 12.2411V11.8631C5.86494 11.7971 5.58888 11.7463 5.31063 11.7113C5.03082 11.6751 4.74901 11.6565 4.46688 11.6556C3.86444 11.6556 3.42569 11.7737 3.12869 12.0167C2.83169 12.2597 2.68994 12.6023 2.68994 13.0528C2.68994 13.4747 2.79625 13.7903 3.02069 14.008C3.23669 14.2324 3.55056 14.3404 3.964 14.3404ZM11.1747 15.3141C11.0127 15.3141 10.9047 15.2871 10.8338 15.223C10.7613 15.169 10.6988 15.0441 10.6448 14.872L8.53544 7.90765C8.49441 7.79086 8.46722 7.66965 8.45444 7.54652C8.45444 7.40309 8.52531 7.32209 8.66875 7.32209H9.54963C9.71838 7.32209 9.8365 7.34909 9.89894 7.41153C9.9715 7.46553 10.0255 7.59209 10.0795 7.76252L11.5881 13.7278L12.9888 7.76252C13.0326 7.58365 13.0866 7.46553 13.1592 7.41153C13.267 7.34554 13.3925 7.31432 13.5186 7.32209H14.2375C14.4063 7.32209 14.5244 7.34909 14.5953 7.41153C14.6678 7.46553 14.7303 7.59209 14.7674 7.76252L16.1849 13.8004L17.7374 7.76252C17.7662 7.63189 17.8284 7.51097 17.9179 7.41153C18.0225 7.34537 18.1454 7.31405 18.2689 7.32209H19.1043C19.2477 7.32209 19.3287 7.39465 19.3287 7.54652C19.3287 7.59209 19.3186 7.63765 19.3118 7.69165C19.2972 7.76824 19.2758 7.84336 19.2477 7.91609L17.0826 14.8804C17.0303 15.061 16.9662 15.1791 16.8953 15.2331C16.7934 15.2983 16.6735 15.3296 16.5528 15.3225H15.7816C15.6111 15.3225 15.4947 15.2955 15.4221 15.2331C15.3496 15.169 15.2871 15.0525 15.2517 14.872L13.8595 9.0619L12.4758 14.8652C12.4319 15.0458 12.3779 15.1622 12.307 15.2246C12.2344 15.2888 12.1079 15.3158 11.9476 15.3158H11.1747V15.3141ZM22.7138 15.5571C22.2478 15.5577 21.7833 15.5033 21.3301 15.3951C20.8812 15.2871 20.5319 15.169 20.2973 15.034C20.1539 14.953 20.056 14.8635 20.0189 14.7808C19.9847 14.7014 19.9669 14.6159 19.9666 14.5294V14.0704C19.9666 13.8814 20.0374 13.7903 20.1724 13.7903C20.2276 13.7904 20.2823 13.7995 20.3344 13.8173C20.3884 13.8358 20.4694 13.8713 20.5589 13.9084C20.8626 14.0434 21.1968 14.1514 21.5461 14.224C21.9055 14.2948 22.2548 14.332 22.6143 14.332C23.1813 14.332 23.62 14.2324 23.9254 14.035C24.0722 13.9461 24.1927 13.82 24.2748 13.6694C24.357 13.5188 24.3977 13.3492 24.3929 13.1777C24.3959 13.062 24.376 12.9467 24.3343 12.8387C24.2926 12.7307 24.2299 12.632 24.1499 12.5483C23.9896 12.3761 23.6841 12.2226 23.2437 12.0791L21.9409 11.6741C21.2862 11.4666 20.8002 11.1595 20.5049 10.7545C20.2158 10.3802 20.058 9.92121 20.056 9.44834C20.056 9.07034 20.137 8.73621 20.2973 8.44765C20.4593 8.16077 20.6753 7.90765 20.9453 7.70852C21.2153 7.50265 21.5191 7.34909 21.8785 7.24109C22.2379 7.13309 22.6143 7.08752 23.0091 7.08752C23.2083 7.08752 23.4141 7.09596 23.6116 7.12296C23.8174 7.14996 24.0064 7.18709 24.1954 7.22421C24.3743 7.26809 24.5464 7.31196 24.7068 7.36765C24.8688 7.42165 24.9936 7.47565 25.0848 7.52965C25.1907 7.58291 25.283 7.65968 25.3548 7.75409C25.4125 7.84195 25.4403 7.94613 25.4341 8.05109V8.47465C25.4341 8.66365 25.3632 8.76321 25.2282 8.76321C25.1087 8.74956 24.9929 8.71289 24.8873 8.65521C24.3447 8.41467 23.7562 8.2949 23.1627 8.30421C22.6514 8.30421 22.2464 8.38521 21.9679 8.55734C21.6895 8.72609 21.5461 8.98934 21.5461 9.3589C21.5461 9.61034 21.6355 9.82634 21.8161 9.99846C21.9949 10.1689 22.3274 10.3393 22.8033 10.4929L24.079 10.8979C24.7253 11.1055 25.1928 11.394 25.4712 11.7636C25.7496 12.1331 25.8829 12.5567 25.8829 13.0258C25.8829 13.414 25.8036 13.7633 25.6501 14.0704C25.4911 14.3786 25.2678 14.6491 24.9953 14.8635C24.7169 15.088 24.3844 15.2516 23.998 15.3681C23.593 15.4946 23.1711 15.5571 22.7138 15.5571Z" fill="#BB6E2E" fill-opacity="0.7"/>
<path fill-rule="evenodd" clip-rule="evenodd" d="M24.4108 19.9344C21.4577 22.1231 17.1647 23.2858 13.4741 23.2858C8.30192 23.2858 3.64104 21.3671 0.120916 18.1777C-0.157522 17.9246 0.0939155 17.5821 0.424665 17.7812C4.23335 19.9969 8.92966 21.3401 13.7897 21.3401C17.0651 21.3401 20.6662 20.655 23.9805 19.2493C24.4749 19.0249 24.8968 19.5733 24.4108 19.9344Z" fill="#BB6E2E" fill-opacity="0.7"/>
<path fill-rule="evenodd" clip-rule="evenodd" d="M25.6399 18.5288C25.2636 18.0445 23.1441 18.2959 22.1839 18.4123C21.897 18.4495 21.8514 18.1963 22.1113 18.0073C23.7988 16.8177 26.5748 17.1602 26.8971 17.5568C27.2211 17.9618 26.8076 20.7462 25.2264 22.0793C24.9851 22.2868 24.7523 22.1805 24.8603 21.9105C25.218 21.0162 26.0179 19.008 25.6399 18.5305V18.5288Z" fill="#BB6E2E" fill-opacity="0.7"/>
</svg>
