<svg width="27" height="27" viewBox="0 0 27 27" fill="none" xmlns="http://www.w3.org/2000/svg">
<path fill-rule="evenodd" clip-rule="evenodd" d="M25.9373 23.0849L19.1873 2.83484C19.0698 2.48557 18.8413 2.1843 18.5366 1.97709C18.2318 1.76988 17.8676 1.66815 17.4998 1.68735H9.50095C9.14717 1.68644 8.80201 1.79671 8.51434 2.00262C8.22667 2.20855 8.01101 2.49967 7.89779 2.83484L1.06345 23.0849C0.97482 23.3459 0.951489 23.6247 0.995571 23.8969C1.03965 24.1692 1.1498 24.4264 1.3163 24.6463C1.48281 24.866 1.70067 25.0417 1.95076 25.1578C2.20086 25.2739 2.47559 25.327 2.75095 25.3124H7.69531C8.04619 25.3098 8.38751 25.1978 8.67182 24.9921C8.95613 24.7865 9.16929 24.4973 9.28156 24.1649L10.3109 21.1611L15.3734 24.9917C15.6676 25.2049 16.0228 25.3173 16.386 25.3124H24.2835C24.556 25.3213 24.8267 25.2639 25.0722 25.1455C25.3179 25.0268 25.5311 24.8507 25.6937 24.6316C25.8563 24.4128 25.9632 24.1576 26.0056 23.8883C26.0481 23.6188 26.0247 23.3432 25.9373 23.0849ZM16.4534 24.1986C16.3308 24.1986 16.2117 24.1571 16.1159 24.0805L6.5816 17.0099L6.42969 16.8917H11.4922L11.6272 16.5373L13.3147 12.268L17.0948 23.4561C17.1251 23.5499 17.1307 23.65 17.1111 23.7465C17.0915 23.8432 17.0475 23.9332 16.983 24.0079C16.9186 24.0825 16.836 24.1392 16.7433 24.1726C16.6505 24.206 16.5507 24.215 16.4534 24.1986ZM24.334 24.1986H18.0566C18.1827 23.838 18.1827 23.4453 18.0566 23.0849L11.2222 2.83484H17.4998C17.6189 2.83544 17.7348 2.87313 17.8317 2.94268C17.9284 3.01223 18.0011 3.11023 18.0398 3.22299L24.8741 23.473C24.8971 23.557 24.9008 23.6453 24.8846 23.731C24.8686 23.8167 24.8331 23.8976 24.7811 23.9676C24.729 24.0375 24.6618 24.0947 24.5844 24.1347C24.5069 24.1746 24.4212 24.1966 24.334 24.1986Z" fill="#BB6E2E" fill-opacity="0.7"/>
</svg>
