<svg width="16" height="16" viewBox="0 0 16 16" fill="none" xmlns="http://www.w3.org/2000/svg">
<path d="M2.83331 7.39998H4.78331C4.72775 6.95553 4.61942 6.52775 4.45831 6.11664C4.2972 5.70553 4.06109 5.33886 3.74998 5.01664C3.49442 5.3722 3.29164 5.74998 3.14164 6.14998C2.99164 6.54998 2.88886 6.96664 2.83331 7.39998ZM11.2166 7.39998H13.1666C13.1111 6.96664 13.0083 6.54998 12.8583 6.14998C12.7083 5.74998 12.5055 5.3722 12.25 5.01664C11.95 5.33886 11.7194 5.70553 11.5583 6.11664C11.3972 6.52775 11.2833 6.95553 11.2166 7.39998ZM3.59998 10.75C3.86664 10.4278 4.10553 10.0916 4.31664 9.74164C4.52775 9.39164 4.66109 9.01109 4.71664 8.59998H2.83331C2.88886 8.98886 2.97775 9.36386 3.09998 9.72498C3.2222 10.0861 3.38886 10.4278 3.59998 10.75ZM12.4 10.75C12.6222 10.4278 12.7916 10.0861 12.9083 9.72498C13.025 9.36386 13.1111 8.98886 13.1666 8.59998H11.2833C11.3389 9.01109 11.4694 9.39442 11.675 9.74998C11.8805 10.1055 12.1222 10.4389 12.4 10.75ZM5.98331 7.39998H7.39998V2.83331C6.86664 2.88886 6.35831 3.02775 5.87498 3.24998C5.39164 3.4722 4.94998 3.76109 4.54998 4.11664C4.9722 4.56109 5.30275 5.06664 5.54164 5.63331C5.78053 6.19998 5.92775 6.78886 5.98331 7.39998ZM8.59998 7.39998H10.0166C10.0833 6.78886 10.2305 6.19998 10.4583 5.63331C10.6861 5.06664 11.0166 4.56664 11.45 4.13331C11.05 3.77775 10.6083 3.48609 10.125 3.25831C9.64164 3.03053 9.13331 2.88886 8.59998 2.83331V7.39998ZM7.39998 13.1666V8.59998H5.93331C5.87775 9.19998 5.70275 9.75831 5.40831 10.275C5.11386 10.7916 4.75553 11.2611 4.33331 11.6833C4.75553 12.0944 5.22775 12.425 5.74998 12.675C6.2722 12.925 6.8222 13.0889 7.39998 13.1666ZM8.59998 13.1666C9.17775 13.0889 9.72498 12.925 10.2416 12.675C10.7583 12.425 11.2278 12.0944 11.65 11.6833C11.2278 11.2611 10.8722 10.7916 10.5833 10.275C10.2944 9.75831 10.1222 9.19998 10.0666 8.59998H8.59998V13.1666ZM7.99998 14.4C7.1222 14.4 6.29442 14.2333 5.51664 13.9C4.73886 13.5666 4.05831 13.1083 3.47498 12.525C2.89164 11.9416 2.43331 11.2611 2.09998 10.4833C1.76664 9.70553 1.59998 8.87775 1.59998 7.99998C1.59998 7.11109 1.76664 6.28053 2.09998 5.50831C2.43331 4.73609 2.89164 4.05831 3.47498 3.47498C4.05831 2.89164 4.73886 2.43331 5.51664 2.09998C6.29442 1.76664 7.1222 1.59998 7.99998 1.59998C8.88886 1.59998 9.71942 1.76664 10.4916 2.09998C11.2639 2.43331 11.9416 2.89164 12.525 3.47498C13.1083 4.05831 13.5666 4.73609 13.9 5.50831C14.2333 6.28053 14.4 7.11109 14.4 7.99998C14.4 8.87775 14.2333 9.70553 13.9 10.4833C13.5666 11.2611 13.1083 11.9416 12.525 12.525C11.9416 13.1083 11.2639 13.5666 10.4916 13.9C9.71942 14.2333 8.88886 14.4 7.99998 14.4Z" fill="#F5882C" fill-opacity="0.6"/>
</svg>
