<svg width="16" height="16" viewBox="0 0 16 16" fill="none" xmlns="http://www.w3.org/2000/svg">
<path d="M4.20002 14.4C3.70002 14.4 3.27502 14.225 2.92502 13.875C2.57502 13.525 2.40002 13.1 2.40002 12.6V3.39998C2.40002 2.89998 2.57502 2.47498 2.92502 2.12498C3.27502 1.77498 3.70002 1.59998 4.20002 1.59998H11.2V12H4.20002C4.03002 12 3.88752 12.0571 3.77252 12.1715C3.65752 12.2858 3.60002 12.4275 3.60002 12.5965C3.60002 12.7655 3.65752 12.9083 3.77252 13.025C3.88752 13.1416 4.03002 13.2 4.20002 13.2H12.4V2.79998H13.6V14.4H4.20002ZM6.00002 10.8H10V2.79998H6.00002V10.8ZM4.80002 10.8V2.79998H4.20002C4.03002 2.79998 3.88752 2.86109 3.77252 2.98331C3.65752 3.10553 3.60002 3.24442 3.60002 3.39998V10.9166C3.68891 10.8833 3.78264 10.8555 3.88119 10.8333C3.97964 10.8111 4.08591 10.8 4.20002 10.8H4.80002Z" fill="#F5882C" fill-opacity="0.6"/>
</svg>
