<svg width="27" height="27" viewBox="0 0 27 27" fill="none" xmlns="http://www.w3.org/2000/svg">
<g clip-path="url(#clip0_11_2)">
<path d="M13.5 25.875L4.66875 23.4563L2.8125 2.25H24.1875L22.3312 23.4563L13.5 25.875ZM6.75 21.7125L13.5 23.5688L20.25 21.7125L21.7125 4.5H5.2875L6.75 21.7125Z" fill="#BB6E2E" fill-opacity="0.7"/>
<path d="M7.875 7.3125H19.125L18.1125 19.2937L13.4437 20.8125L8.71875 19.6313L8.2125 15.5813H10.7438V17.6062L13.4437 18.1125L15.9187 17.6062V14.5687H8.2125L8.04375 12.0375C8.27494 11.8267 8.57469 11.7068 8.8875 11.7C12.7688 11.7 15.9187 12.0375 15.9187 12.0375V10.0125H8.2125L7.875 7.3125Z" fill="#BB6E2E" fill-opacity="0.7"/>
</g>
<defs>
<clipPath id="clip0_11_2">
<rect width="27" height="27" fill="white"/>
</clipPath>
</defs>
</svg>
