<svg width="27" height="27" viewBox="0 0 27 27" fill="none" xmlns="http://www.w3.org/2000/svg">
<g clip-path="url(#clip0_11_34)">
<path d="M12.0784 12.6447V10.1361H14.884V12.6447H12.0784ZM14.884 3.97058V6.56496H12.0784V3.97058H14.884ZM18.201 10.1409V12.6495H15.3954V10.1409H18.201ZM11.5678 7.07955V9.63105H8.76217V7.07955H11.5678ZM14.8848 7.07955V9.63105H12.0784V7.07955H14.8848ZM26.6648 11.3265L27.2175 11.7093L26.8347 12.4351C26.4345 13.2276 25.7412 13.824 24.9018 14.0876L24.8788 14.094C24.3531 14.2568 23.7488 14.3513 23.123 14.3513C23.0674 14.3513 23.0126 14.3505 22.9578 14.3489H22.9658C21.8858 17.0561 20.0339 19.2645 17.6833 20.759L17.6293 20.7916C15.297 22.198 12.4802 23.0302 9.46893 23.0302C9.31011 23.0302 9.15287 23.0278 8.99485 23.0231L9.01787 23.0238C5.89964 23.0238 3.54667 22.0884 1.95896 20.2174C1.19899 19.2764 0.624847 18.1503 0.313553 16.9203L0.300847 16.8599C0.111053 16.1738 0.00146484 15.3852 0.00146484 14.5721C0.00146484 14.1345 0.0332295 13.7033 0.0943766 13.2824L0.0888178 13.3301H18.587C18.6219 13.3308 18.6632 13.3316 18.7045 13.3316C19.4073 13.3316 20.0696 13.1577 20.6509 12.8512L20.6279 12.8623C20.2975 12.3311 20.1014 11.6862 20.1014 10.9961C20.1014 10.8746 20.1077 10.7547 20.1196 10.6364L20.118 10.6515C20.157 9.82879 20.4047 9.0704 20.8097 8.42082L20.7986 8.44067L21.2243 7.84508L21.8198 8.27073C22.7243 8.87902 23.3636 9.82402 23.5582 10.9223L23.5621 10.9469C23.8718 10.8977 24.23 10.8699 24.5937 10.8699C24.8375 10.8699 25.0781 10.8826 25.3155 10.9072L25.2862 10.9048C25.8 10.9239 26.2748 11.0795 26.6783 11.3352L26.6671 11.3281L26.6648 11.3265ZM4.93532 10.1361V12.6447H2.12891V10.1361H4.93532ZM8.25235 10.1361V12.6447H5.44752V10.1361H8.25235ZM11.5694 10.1361V12.6447H8.76217V10.1361H11.5694ZM8.25155 7.07479V9.62629H5.44752V7.07479H8.25155Z" fill="#BB6E2E" fill-opacity="0.7"/>
</g>
<defs>
<clipPath id="clip0_11_34">
<rect width="27" height="27" fill="white"/>
</clipPath>
</defs>
</svg>
