<svg width="16" height="16" viewBox="0 0 16 16" fill="none" xmlns="http://www.w3.org/2000/svg">
<rect width="16" height="16" fill="#323232"/>
<path d="M7.99998 14.4C7.1222 14.4 6.29442 14.2333 5.51664 13.9C4.73886 13.5666 4.05831 13.1083 3.47498 12.525C2.89164 11.9416 2.43331 11.2611 2.09998 10.4833C1.76664 9.70553 1.59998 8.87775 1.59998 7.99998C1.59998 7.11109 1.76664 6.28053 2.09998 5.50831C2.43331 4.73609 2.89164 4.05831 3.47498 3.47498C4.05831 2.89164 4.73886 2.43331 5.51664 2.09998C6.29442 1.76664 7.1222 1.59998 7.99998 1.59998C8.88886 1.59998 9.71942 1.76664 10.4916 2.09998C11.2639 2.43331 11.9416 2.89164 12.525 3.47498C13.1083 4.05831 13.5666 4.73609 13.9 5.50831C14.2333 6.28053 14.4 7.11109 14.4 7.99998C14.4 8.87775 14.2333 9.70553 13.9 10.4833C13.5666 11.2611 13.1083 11.9416 12.525 12.525C11.9416 13.1083 11.2639 13.5666 10.4916 13.9C9.71942 14.2333 8.88886 14.4 7.99998 14.4ZM10.9833 6.53331L11.9 6.26664L12.3166 5.11664C11.9833 4.62775 11.5889 4.20831 11.1333 3.85831C10.6778 3.50831 10.1666 3.23886 9.59998 3.04998L8.59998 3.76664V4.84998L10.9833 6.53331ZM4.99998 6.51664L7.39998 4.84998V3.76664L6.39998 3.04998C5.83331 3.23886 5.31942 3.50553 4.85831 3.84998C4.3972 4.19442 4.00553 4.61109 3.68331 5.09998L4.09998 6.26664L4.99998 6.51664ZM3.76664 11L4.98331 11.0333L5.53331 10.3L4.64998 7.66664L3.76664 7.41664L2.79998 8.16664C2.8222 8.67775 2.91386 9.1722 3.07498 9.64998C3.23609 10.1278 3.46664 10.5778 3.76664 11ZM7.99998 13.2C8.28886 13.2 8.5722 13.175 8.84998 13.125C9.12775 13.075 9.40553 13.0055 9.68331 12.9166L10.05 11.75L9.48331 11H6.49998L5.94998 11.75L6.31664 12.9166C6.59442 13.0055 6.8722 13.075 7.14998 13.125C7.42775 13.175 7.71109 13.2 7.99998 13.2ZM6.63331 9.79998H9.36664L10.1666 7.41664L7.99998 5.89998L5.83331 7.41664L6.63331 9.79998ZM12.2333 11.0166C12.5333 10.5944 12.7639 10.1444 12.925 9.66664C13.0861 9.18886 13.1778 8.69442 13.2 8.18331L12.2333 7.41664L11.35 7.66664L10.4666 10.3L11.0166 11.0333L12.2333 11.0166Z" fill="#F5882C" fill-opacity="0.6"/>
</svg>
