<svg width="27" height="27" viewBox="0 0 27 27" fill="none" xmlns="http://www.w3.org/2000/svg">
<path d="M8.11187 7.38619L8.13887 7.4115L7.89081 7.65957C7.71075 7.83846 7.53409 8.02074 7.36093 8.20632C7.02849 8.56575 6.73318 8.96907 6.70449 9.08382H8.24012C8.27512 9.08547 8.31002 9.07885 8.34198 9.06448C8.37394 9.05011 8.40206 9.02841 8.42406 9.00113C9.63778 7.66655 11.3248 6.85878 13.1254 6.75C14.1676 6.68355 15.2114 6.85158 16.1801 7.24174C17.1488 7.6319 18.0177 8.23426 18.7229 9.0045C18.74 9.02853 18.7625 9.04821 18.7886 9.06198C18.8146 9.07575 18.8436 9.08323 18.8731 9.08382L19.8771 9.08213H20.3749C20.4017 9.07912 20.4282 9.07404 20.4542 9.06694C20.0924 8.53441 19.6706 8.0452 19.1971 7.60894L19.219 7.587C19.7055 7.20224 20.1173 6.73152 20.434 6.19819C20.6618 5.83875 20.8339 5.44557 20.9402 5.03382C20.981 4.8741 20.9936 4.70848 20.9774 4.54444C20.9554 4.32169 20.8322 4.13438 20.5352 4.16982C20.4761 4.17638 20.4178 4.18939 20.3614 4.20863C20.1576 4.28248 19.9689 4.39284 19.8046 4.53432C19.0978 5.11901 18.5606 5.88233 18.2487 6.74494L18.2251 6.79557L18.2149 6.81413C18.1238 6.7635 18.0327 6.7095 17.9449 6.65719C17.7391 6.53907 17.5399 6.42094 17.3307 6.31632C17.0269 6.16444 16.7164 6.02944 16.3975 5.91132C15.8599 5.71897 15.305 5.57938 14.7404 5.4945C14.6374 5.47763 14.5345 5.46075 14.4316 5.4405C14.6516 4.62385 14.6736 3.76648 14.4957 2.93963C14.4474 2.69807 14.3638 2.46494 14.2476 2.24775C14.1856 2.11861 14.0908 2.00803 13.9726 1.92713C13.9165 1.88886 13.8501 1.86867 13.7822 1.86928C13.7143 1.86988 13.6482 1.89125 13.5929 1.9305C13.5369 1.96845 13.4864 2.01387 13.4427 2.0655C13.3277 2.20792 13.2402 2.37041 13.1845 2.54475C13.0697 2.87719 12.9989 3.22313 12.9736 3.57413C12.916 4.18126 12.9634 4.79376 13.1136 5.38482L13.1204 5.42363C11.7681 5.4983 10.4545 5.90143 9.29312 6.59813L9.27793 6.58632C9.27335 6.58309 9.26935 6.57909 9.26612 6.5745C9.01906 5.97523 8.66448 5.4262 8.21987 4.9545C7.98503 4.68237 7.70253 4.45535 7.38624 4.28457C7.30045 4.23968 7.20988 4.20458 7.11624 4.17994C6.81756 4.10738 6.61337 4.26263 6.59312 4.56807L6.59143 4.60688V4.63388C6.57962 4.87013 6.63868 5.09288 6.71631 5.31225C6.99643 6.09525 7.45712 6.75675 8.05281 7.3305L8.11187 7.38619ZM19.1971 19.4096C19.6172 19.0215 19.9969 18.5912 20.3277 18.1271L20.3209 18.0984H19.8248C19.4873 18.0984 19.1498 18.1001 18.8123 18.0951C18.7594 18.0927 18.7067 18.1019 18.6577 18.122C18.6088 18.1421 18.5648 18.1727 18.5288 18.2115C16.9257 19.7775 15.0087 20.4525 12.7829 20.2365C11.9632 20.152 11.1665 19.9151 10.4339 19.5379C9.74158 19.1899 9.11244 18.7285 8.57256 18.1727C8.55093 18.1476 8.52391 18.1277 8.49352 18.1146C8.46312 18.1014 8.43014 18.0953 8.39706 18.0968L7.35756 18.0984H6.90699C6.87082 18.0982 6.83469 18.101 6.79899 18.1069C7.18712 18.6519 7.63768 19.1481 8.14393 19.5868C8.13932 19.5975 8.13366 19.6076 8.12706 19.6172L8.08487 19.656L8.06124 19.6796C7.52516 20.1813 7.09883 20.7887 6.80912 21.4633C6.71094 21.6781 6.64225 21.9051 6.60493 22.1383C6.57127 22.3037 6.58293 22.4751 6.63868 22.6344C6.65919 22.6884 6.69326 22.7361 6.73759 22.7731C6.78193 22.81 6.83504 22.8349 6.89181 22.8454C6.99643 22.8623 7.10274 22.8521 7.20062 22.8116C7.40859 22.7382 7.60133 22.6272 7.76931 22.4843C8.40381 21.9561 8.90499 21.2861 9.22899 20.5268L9.26274 20.4525L9.28131 20.412C10.4413 21.1113 11.7545 21.5168 13.1069 21.5933L13.1119 21.6101C13.1153 21.6186 13.117 21.6236 13.1153 21.627C13.0277 21.9476 12.9762 22.2771 12.9617 22.6091C12.9347 23.0276 12.9567 23.4478 13.0259 23.8596C13.0799 24.1633 13.1541 24.4603 13.2992 24.732C13.3499 24.8282 13.4123 24.9176 13.4849 24.9986C13.6671 25.1978 13.8916 25.1961 14.0806 25.002C14.1237 24.9602 14.1606 24.9125 14.1902 24.8603C14.2645 24.7269 14.3303 24.5903 14.3877 24.4485C14.5058 24.1059 14.5767 23.7482 14.5969 23.3854C14.6499 22.7852 14.5974 22.1804 14.4417 21.5983L14.4349 21.5612C14.8872 21.5106 15.3344 21.4262 15.7731 21.3081C16.2034 21.1866 16.6253 21.033 17.0337 20.8474C17.4432 20.6563 17.838 20.4352 18.2149 20.1859L18.2301 20.223L18.2487 20.2736C18.5592 21.1376 19.0975 21.9004 19.8062 22.4809C19.9412 22.5889 20.0847 22.68 20.2399 22.7559C20.3412 22.8049 20.4475 22.8369 20.5606 22.8504C20.6425 22.8648 20.7268 22.8487 20.7977 22.8051C20.8685 22.7616 20.921 22.6937 20.9453 22.6142C20.964 22.5574 20.9753 22.4984 20.9791 22.4387C20.9933 22.2073 20.9583 21.9755 20.8761 21.7586C20.5655 20.8682 20.0147 20.081 19.2848 19.4839L19.1971 19.4096ZM18.2588 11.0312L18.3803 11.0329C18.4697 11.0346 18.5575 11.0379 18.6436 11.0295C18.7853 11.016 18.8866 11.0666 18.9895 11.1628C19.4384 11.5763 19.8906 11.9863 20.3429 12.3947L20.7884 12.7997C20.8069 12.8166 20.8289 12.8334 20.8508 12.8554L20.8879 12.8874L20.9217 12.8571L20.9892 12.798L22.8454 11.1071C22.8709 11.0809 22.9017 11.0603 22.9357 11.0469C22.9698 11.0336 23.0063 11.0276 23.0429 11.0295C23.198 11.0355 23.3534 11.0361 23.5086 11.0312V16.0093C23.0737 16.0352 22.6376 16.0364 22.2025 16.0127V13.4916L22.1772 13.4798L20.8896 14.6543L19.5919 13.4848L19.5666 13.4933V16.0228H18.2706C18.247 15.9384 18.2369 11.3147 18.2605 11.0312H18.2588ZM7.58874 11.0363H6.30118V12.8014C5.76702 12.8256 5.23199 12.8233 4.69806 12.7946V11.0396H3.39868V16.0127C3.50668 16.038 4.60693 16.0363 4.70481 16.0059V14.1294H6.30118V15.3833C6.30118 15.5959 6.29949 15.8102 6.30456 16.0245H7.59381C7.62081 15.903 7.61574 11.1189 7.58874 11.0363ZM9.13281 16.0211V11.0531C9.20874 11.0295 12.0404 11.0194 12.226 11.0447V12.1028L12.2007 12.1061H12.1872C12.158 12.1091 12.1287 12.1108 12.0994 12.1112H10.4457V12.9364H12.0218V14.0333H10.4592C10.4309 14.3418 10.427 14.6522 10.4474 14.9614L10.4862 14.9631C10.5149 14.9664 10.5436 14.9681 10.5739 14.9681H12.226V16.0228L9.13281 16.0211ZM13.7076 11.0363C13.684 11.1291 13.6789 15.8895 13.7026 16.0228H16.7941V14.7201H15.1319L15.0424 14.715L14.9918 14.7116V11.0379L13.7076 11.0363Z" fill="#BB6E2E" fill-opacity="0.7"/>
</svg>
