<svg width="27" height="27" viewBox="0 0 27 27" fill="none" xmlns="http://www.w3.org/2000/svg">
<g clip-path="url(#clip0_9_175)">
<path d="M13.3663 5.0029C12.1187 5.88035 10.7048 6.87487 9.94712 8.52024C8.63119 11.3908 12.6399 14.5221 12.8112 14.654C12.851 14.6846 12.8987 14.6999 12.9462 14.6999C12.9967 14.6999 13.0472 14.6826 13.0882 14.6483C13.1678 14.5817 13.1904 14.4686 13.1426 14.3766C13.1281 14.3486 11.6892 11.5537 11.7426 9.54862C11.7616 8.85025 12.7389 8.05802 13.7735 7.21928C14.7212 6.45104 15.7954 5.58034 16.4239 4.56177C17.8036 2.31971 16.2701 0.115086 16.2544 0.0930427C16.1935 0.00750717 16.0811 -0.023448 15.985 0.0186869C15.8889 0.0610855 15.8357 0.16492 15.8577 0.267594C15.8608 0.282202 16.159 1.7401 15.3292 3.24214C14.9873 3.86283 14.2362 4.39112 13.3663 5.0029Z" fill="#BB6E2E" fill-opacity="0.7"/>
<path d="M18.6225 5.99155C18.7105 5.92527 18.7363 5.80435 18.6831 5.70784C18.6298 5.61134 18.5138 5.56878 18.4108 5.60791C18.1988 5.68849 13.2208 7.60734 13.2208 9.92582C13.2208 11.524 13.9035 12.3683 14.402 12.9849C14.5976 13.2267 14.7664 13.4356 14.822 13.6139C14.9786 14.1277 14.6076 15.0563 14.4515 15.3708C14.4066 15.4612 14.4286 15.5708 14.5051 15.6368C14.5465 15.6725 14.5981 15.6907 14.6498 15.6907C14.6938 15.6907 14.7379 15.6776 14.7761 15.651C14.8617 15.5915 16.8679 14.1731 16.5081 12.4641C16.3741 11.8145 16.0549 11.3399 15.7732 10.9211C15.3369 10.2722 15.0218 9.80347 15.4999 8.93778C16.06 7.92802 18.5968 6.01075 18.6225 5.99155Z" fill="#BB6E2E" fill-opacity="0.7"/>
<path d="M5.66474 15.7273C5.57941 15.9828 5.6197 16.2363 5.78112 16.4605C6.32076 17.2097 8.23223 17.6222 11.1636 17.6222C11.1638 17.6222 11.1639 17.6222 11.164 17.6222C11.5612 17.6222 11.9805 17.6144 12.4101 17.599C17.0969 17.4312 18.8352 15.9711 18.9069 15.909C18.9851 15.8414 19.006 15.7287 18.9574 15.6376C18.9088 15.5465 18.804 15.5008 18.7038 15.5284C17.0532 15.979 13.971 16.139 11.8332 16.139C9.44096 16.139 8.22268 15.9667 7.92442 15.8394C8.07745 15.6293 9.0214 15.254 10.1911 15.0239C10.3029 15.002 10.3797 14.8988 10.3687 14.7854C10.3576 14.672 10.2624 14.5855 10.1484 14.5855C9.46274 14.5855 6.02418 14.6406 5.66474 15.7273Z" fill="#BB6E2E" fill-opacity="0.7"/>
<path d="M21.3477 14.2234C20.381 14.2234 19.4643 14.708 19.4257 14.7285C19.3363 14.7764 19.291 14.8789 19.3155 14.9774C19.3401 15.0757 19.4286 15.1449 19.53 15.145C19.5505 15.145 21.592 15.1617 21.7769 16.3281C21.9407 17.3344 19.8453 18.9649 19.024 19.5082C18.9353 19.5669 18.9009 19.6803 18.9421 19.7784C18.9772 19.8619 19.0584 19.9141 19.1461 19.9141C19.1614 19.9141 19.1769 19.9125 19.1923 19.9092C19.3872 19.8675 23.9598 18.8599 23.4763 16.1976C23.1814 14.566 22.1559 14.2234 21.3477 14.2234Z" fill="#BB6E2E" fill-opacity="0.7"/>
<path d="M18.2118 19.1825C18.2278 19.0972 18.1923 19.0104 18.1213 18.9606L17.0249 18.1926C16.9714 18.1552 16.9039 18.1434 16.8411 18.16C16.8297 18.1629 15.6831 18.4644 14.0185 18.6492C13.3578 18.7233 12.6179 18.7624 11.8784 18.7624C10.2142 18.7624 9.1261 18.5669 8.96763 18.4235C8.94664 18.3832 8.95329 18.3649 8.95703 18.3547C8.98582 18.2746 9.14013 18.1795 9.23958 18.1418C9.34943 18.1012 9.40865 17.9819 9.37448 17.8699C9.34041 17.7577 9.22487 17.6918 9.11086 17.7191C8.01103 17.9845 7.47324 18.3557 7.51237 18.8222C7.58187 19.6494 9.49782 20.074 11.1176 20.1862C11.3505 20.2021 11.6024 20.2102 11.8661 20.2102C11.8663 20.2102 11.8664 20.2102 11.8666 20.2102C14.5599 20.2102 18.0128 19.3651 18.0473 19.3565C18.1316 19.336 18.1959 19.2679 18.2118 19.1825Z" fill="#BB6E2E" fill-opacity="0.7"/>
<path d="M9.94594 20.9577C10.029 20.9037 10.0658 20.801 10.0363 20.7065C10.007 20.6119 9.91852 20.5498 9.81917 20.5511C9.67177 20.555 8.37693 20.6134 8.28628 21.4378C8.25886 21.6842 8.32941 21.9093 8.49611 22.1068C8.96102 22.6578 10.216 22.9853 12.3321 23.1079C12.5824 23.123 12.8367 23.1305 13.088 23.1305C15.7782 23.1305 17.5901 22.2882 17.666 22.2523C17.7395 22.2175 17.788 22.1452 17.7924 22.064C17.7967 21.9828 17.7561 21.9058 17.6867 21.8633L16.3011 21.0174C16.253 20.9881 16.1955 20.9784 16.1407 20.9896C16.1319 20.9915 15.2521 21.174 13.9244 21.3542C13.6732 21.3884 13.3586 21.4057 12.9895 21.4057C11.6632 21.4057 10.188 21.189 9.90507 21.0471C9.90096 21.0207 9.90618 20.987 9.94594 20.9577Z" fill="#BB6E2E" fill-opacity="0.7"/>
<path d="M11.8341 25.6738C17.9964 25.6686 21.3037 24.5727 21.9409 23.8831C22.1664 23.6392 22.1908 23.4082 22.1716 23.2573C22.1243 22.8861 21.7861 22.6588 21.7477 22.6341C21.6552 22.5746 21.5311 22.5902 21.459 22.6734C21.387 22.7566 21.3853 22.8782 21.4575 22.9614C21.4964 23.0113 21.5189 23.095 21.4052 23.2088C21.1505 23.4467 18.5816 24.1688 14.3042 24.3857C13.7183 24.4161 13.1037 24.4316 12.4777 24.4318C8.64795 24.4318 5.84516 23.9072 5.47723 23.6015C5.61903 23.3977 6.61044 23.0722 7.66476 22.8881C7.78357 22.8673 7.86384 22.7554 7.84543 22.6362C7.82703 22.5171 7.71718 22.4351 7.5971 22.4506C7.56736 22.4547 7.46643 22.4607 7.34957 22.4679C5.60996 22.5741 3.59967 22.8108 3.49478 23.7071C3.46292 23.9802 3.54408 24.2282 3.73609 24.444C4.2059 24.9719 5.55628 25.6737 11.8339 25.6737C11.834 25.6738 11.834 25.6738 11.8341 25.6738Z" fill="#BB6E2E" fill-opacity="0.7"/>
<path d="M23.1512 24.0774C23.0641 24.0371 22.9611 24.0575 22.8962 24.1276C22.8871 24.1374 21.9607 25.1062 19.175 25.6751C18.1086 25.8888 16.1067 25.9971 13.2252 25.9971C10.3382 25.9971 7.59111 25.8835 7.56375 25.8824C7.44899 25.8768 7.35086 25.9602 7.33525 26.0732C7.31958 26.186 7.39236 26.2924 7.50315 26.3188C7.53174 26.3256 10.4107 27 14.347 27C16.2349 27 18.0721 26.8467 19.8076 26.5442C23.0434 25.9769 23.2699 24.3724 23.278 24.3044C23.2893 24.2093 23.2382 24.1177 23.1512 24.0774Z" fill="#BB6E2E" fill-opacity="0.7"/>
</g>
<defs>
<clipPath id="clip0_9_175">
<rect width="27" height="27" fill="white"/>
</clipPath>
</defs>
</svg>
