<svg width="27" height="27" viewBox="0 0 27 27" fill="none" xmlns="http://www.w3.org/2000/svg">
<path d="M0 0V27H27V0H0ZM2.45455 2.45455H24.5455V24.5455H2.45455V2.45455ZM18.7087 12.2727C16.9599 12.2727 15.8299 13.3922 15.8299 14.8735C15.8299 16.4824 16.7733 17.2515 18.1958 17.8578L18.6871 18.0687C19.5855 18.4651 20.1206 18.6965 20.1206 19.3727C20.1206 19.9434 19.5968 20.3531 18.7806 20.3531C17.8135 20.3531 17.2636 19.8407 16.8438 19.1522L15.2354 20.0726C15.8061 21.2152 16.9951 22.0909 18.8262 22.0909C20.6916 22.0909 22.0909 21.1233 22.0909 19.3511C22.0909 17.6955 21.1463 16.96 19.4662 16.2494L18.9772 16.0384C18.1267 15.6653 17.7643 15.4205 17.7643 14.8375C17.7643 14.3589 18.1258 13.9866 18.7087 13.9866C19.2806 13.9866 19.6404 14.2313 19.9791 14.8375L21.5204 13.8476C20.8675 12.705 19.9679 12.2727 18.7087 12.2727ZM11.5297 12.3902V19.0946C11.5297 20.074 11.1096 20.3291 10.4678 20.3291C9.79155 20.3291 9.50049 19.8638 9.19735 19.3152L7.58896 20.2836C8.05532 21.2752 8.97468 22.0909 10.5493 22.0909C12.2981 22.0909 13.5 21.1572 13.5 19.1162V12.3902H11.5297Z" fill="#BB6E2E" fill-opacity="0.7"/>
</svg>
