<svg width="27" height="27" viewBox="0 0 27 27" fill="none" xmlns="http://www.w3.org/2000/svg">
<g clip-path="url(#clip0_11_36)">
<path d="M15.9452 15.4406C15.9832 15.4395 16.0211 15.4429 16.0583 15.4508L16.0633 15.444L18.9894 15.9385C18.5575 17.1525 17.7334 18.1881 16.6472 18.8815L15.5115 16.1376L15.5149 16.1342C15.4832 16.0607 15.4698 15.9806 15.4757 15.9008C15.4817 15.821 15.5069 15.7438 15.5492 15.6758C15.5915 15.6078 15.6496 15.5511 15.7185 15.5104C15.7875 15.4698 15.8653 15.4464 15.9452 15.4423V15.4406ZM11.3349 15.5638C11.4187 15.6318 11.4781 15.7253 11.5039 15.83C11.5298 15.9348 11.5209 16.0451 11.4784 16.1443L11.4868 16.1545L10.3629 18.8713C9.28363 18.1803 8.46264 17.1523 8.02745 15.9469L10.9299 15.4541L10.9333 15.4609C11.0036 15.4471 11.076 15.4491 11.1455 15.4666C11.2149 15.4841 11.2796 15.5184 11.3349 15.5638ZM13.7531 16.713C13.83 16.7589 13.893 16.8248 13.9354 16.9037H13.9455L15.3765 19.489C14.1627 19.9007 12.8467 19.8995 11.6336 19.4856L13.0596 16.9054H13.0629C13.0944 16.8462 13.1376 16.7941 13.1898 16.7521C13.242 16.7101 13.3022 16.6792 13.3668 16.6612C13.4313 16.6432 13.4989 16.6385 13.5653 16.6474C13.6317 16.6563 13.6956 16.6786 13.7531 16.713ZM16.2557 12.8756L18.4494 10.9131C19.1244 12.0049 19.4198 13.2891 19.2966 14.5648L16.4548 13.7464L16.4514 13.7346C16.3654 13.7105 16.2874 13.6637 16.2258 13.599C16.1641 13.5343 16.1211 13.4542 16.1012 13.3671C16.0813 13.28 16.0853 13.1891 16.1128 13.1041C16.1403 13.0191 16.1903 12.9431 16.2574 12.8841L16.2557 12.8756ZM14.4551 11.3839C14.4059 11.3089 14.3779 11.222 14.3741 11.1325H14.3708L14.2037 8.18945C15.4732 8.34662 16.656 8.91638 17.5703 9.81114L15.1706 11.5155L15.1622 11.5105C15.1081 11.5499 15.0465 11.5779 14.9813 11.5929C14.916 11.6079 14.8484 11.6096 14.7825 11.5977C14.7166 11.5859 14.6538 11.5609 14.5978 11.5241C14.5418 11.4874 14.4939 11.4397 14.4568 11.3839H14.4551ZM12.0774 11.6151C11.9885 11.6069 11.9033 11.5748 11.8311 11.5223L11.826 11.524L9.40782 9.81114C10.3256 8.90889 11.5179 8.33826 12.7963 8.18945L12.6276 11.1358L12.6158 11.1426C12.6128 11.2094 12.5964 11.275 12.5675 11.3353C12.5385 11.3957 12.4977 11.4495 12.4474 11.4937C12.3971 11.5378 12.3384 11.5713 12.2748 11.5922C12.2113 11.613 12.1441 11.6208 12.0774 11.6151ZM10.7696 13.6148C10.7073 13.6796 10.6286 13.7262 10.5418 13.7498L10.5401 13.7582L7.7102 14.575C7.5697 13.2969 7.85885 12.0085 8.53201 10.9131L10.7393 12.8875L10.7359 12.8976C10.7868 12.9414 10.8282 12.9952 10.8576 13.0556C10.8871 13.116 10.9039 13.1818 10.907 13.2489C10.9102 13.316 10.8996 13.3831 10.876 13.446C10.8524 13.5089 10.8162 13.5663 10.7696 13.6148ZM13.5 15.007L12.6849 14.6155L12.4824 13.7396L13.0461 13.0376H13.9506L14.5125 13.7413L14.31 14.6171L13.5 15.007Z" fill="#BB6E2E" fill-opacity="0.7"/>
<path fill-rule="evenodd" clip-rule="evenodd" d="M24.6388 6.26739L26.9591 16.3418C27.0343 16.6759 27.0108 17.0247 26.8916 17.3458C26.8265 17.5277 26.7319 17.6976 26.6115 17.8487L20.1146 25.9301C19.9452 26.1388 19.7305 26.3061 19.4869 26.4195C19.443 26.4415 19.3958 26.46 19.3485 26.4786C19.1452 26.5559 18.9298 26.5965 18.7123 26.5984L8.29202 26.6018C8.04626 26.5987 7.80358 26.5467 7.57816 26.4487C7.35274 26.3508 7.1491 26.2089 6.97914 26.0314L6.96733 26.0196C6.94033 25.9909 6.91333 25.9622 6.88801 25.9301L0.39114 17.8538C0.271306 17.7008 0.176212 17.53 0.109327 17.3475C-0.00693336 17.0269 -0.0297562 16.6799 0.0435146 16.3468L2.36045 6.27076C2.4227 6.01011 2.54203 5.76653 2.70982 5.55759C2.87762 5.34865 3.0897 5.17955 3.33076 5.06251L12.72 0.575448C12.9632 0.459436 13.2293 0.399231 13.4988 0.399231C13.7683 0.399231 14.0343 0.459436 14.2776 0.575448L23.6668 5.05914C23.9081 5.17608 24.1205 5.34512 24.2886 5.55405C24.4567 5.76299 24.5763 6.00663 24.6388 6.26739ZM17.3134 20.4879C17.277 20.4147 17.2455 20.3392 17.2189 20.2618C18.7622 19.3468 19.9153 17.8964 20.4589 16.1865L20.6985 16.2287C20.7837 16.1498 20.8963 16.1074 21.0124 16.1106C21.3499 16.1764 21.6773 16.2726 21.9928 16.4008C22.1582 16.4751 22.3253 16.5392 22.4974 16.5949L22.5868 16.6151L22.6425 16.6253L22.6543 16.6286L22.6611 16.6303C22.7354 16.654 22.8138 16.6619 22.8914 16.6537C22.9689 16.6455 23.0439 16.6212 23.1116 16.5825C23.1793 16.5438 23.2383 16.4915 23.2847 16.4288C23.3311 16.3662 23.3641 16.2946 23.3814 16.2185C23.3988 16.1425 23.4001 16.0637 23.3854 15.9871C23.3708 15.9105 23.3403 15.8378 23.2961 15.7735C23.2519 15.7093 23.1948 15.655 23.1285 15.6139C23.0622 15.5729 22.988 15.5461 22.9108 15.5351C22.8917 15.5308 22.8725 15.5263 22.8535 15.5216L22.7471 15.4963C22.5686 15.472 22.3889 15.458 22.2088 15.4541C21.8684 15.4319 21.531 15.3765 21.2014 15.2888C21.0992 15.2313 21.0151 15.1466 20.9584 15.0441L20.7323 14.9783C20.9746 13.2059 20.5578 11.4063 19.5611 9.92082C19.6271 9.86072 19.6935 9.80109 19.7603 9.74195C19.753 9.62638 19.7911 9.51253 19.8666 9.4247C20.1248 9.20195 20.4066 9.00451 20.7019 8.83745C20.8622 8.75476 21.0191 8.66364 21.1693 8.56407C21.2115 8.53167 21.2526 8.4979 21.2925 8.46282C21.3604 8.42073 21.4186 8.36472 21.4633 8.2985C21.5079 8.23228 21.5381 8.15734 21.5517 8.07863C21.5653 7.99991 21.562 7.91921 21.5422 7.84184C21.5223 7.76447 21.4863 7.69219 21.4364 7.62975C21.3866 7.56732 21.3241 7.51615 21.2531 7.47963C21.182 7.4431 21.1041 7.42205 21.0243 7.41785C20.9445 7.41365 20.8648 7.42641 20.7903 7.45527C20.7158 7.48414 20.6483 7.52846 20.5922 7.58532L20.5585 7.61232C20.5281 7.63595 20.4926 7.66295 20.469 7.68489C20.3377 7.80861 20.2138 7.9399 20.0978 8.07807C19.8666 8.3312 19.6135 8.5607 19.3384 8.7632C19.231 8.80683 19.1135 8.81968 18.9992 8.80032L18.7849 8.9522C17.5542 7.66121 15.8969 6.86072 14.1206 6.69939L14.1071 6.44964C14.0108 6.38354 13.9442 6.2824 13.9215 6.16782C13.9104 5.82674 13.9324 5.48539 13.9873 5.14857C14.0228 4.97139 14.0481 4.7942 14.0633 4.61364V4.45332C14.068 4.37585 14.0567 4.29823 14.03 4.22534C14.0033 4.15245 13.9619 4.08585 13.9083 4.02972C13.8547 3.97359 13.79 3.92913 13.7184 3.89915C13.6468 3.86916 13.5698 3.85428 13.4922 3.85545C13.4146 3.85661 13.3381 3.8738 13.2674 3.90592C13.1968 3.93804 13.1335 3.98442 13.0816 4.04213C13.0297 4.09984 12.9903 4.16766 12.9658 4.24132C12.9413 4.31498 12.9323 4.3929 12.9394 4.4702V4.61364C12.9546 4.7942 12.9799 4.97139 13.0153 5.14857C13.0693 5.48607 13.0896 5.82695 13.0778 6.16782C13.0459 6.27994 12.9826 6.38063 12.8955 6.45807L12.882 6.69601C11.0937 6.83965 9.4228 7.64324 8.19414 8.95051C8.12605 8.90297 8.05854 8.85459 7.99164 8.80539C7.88036 8.83885 7.7604 8.82734 7.65752 8.77332C7.38325 8.57016 7.12949 8.34069 6.89983 8.0882C6.78424 7.95073 6.66084 7.82002 6.53026 7.6967C6.49765 7.669 6.46446 7.64199 6.4307 7.6157L6.40539 7.59714C6.29411 7.50708 6.1569 7.45504 6.01389 7.44864C5.92894 7.44426 5.84415 7.46001 5.76644 7.49462C5.68872 7.52922 5.62029 7.58169 5.5667 7.64776C5.47615 7.77601 5.43989 7.93482 5.4658 8.08966C5.49171 8.2445 5.5777 8.38286 5.70508 8.47464L5.71351 8.48139L5.74389 8.5067L5.82826 8.5742C5.98014 8.67545 6.13539 8.76657 6.2957 8.84757C6.5927 9.01632 6.87283 9.21207 7.13101 9.43482C7.19822 9.53014 7.23739 9.64238 7.24408 9.75882L7.42464 9.91914C6.43082 11.4099 6.02221 13.215 6.27714 14.9884L6.04089 15.0576C5.97974 15.1561 5.89729 15.2398 5.79958 15.3023C5.47049 15.3899 5.13365 15.4453 4.79383 15.4676C4.61316 15.4713 4.43286 15.4854 4.25383 15.5098L4.1492 15.5351L4.10364 15.5453H4.09858L4.09014 15.5486C4.01292 15.5596 3.93881 15.5864 3.87249 15.6274C3.80617 15.6685 3.74909 15.7228 3.70486 15.787C3.66063 15.8513 3.63021 15.924 3.61553 16.0006C3.60084 16.0772 3.60222 16.156 3.61955 16.232C3.63689 16.3081 3.66982 16.3797 3.71626 16.4423C3.7627 16.505 3.82164 16.5573 3.88934 16.596C3.95705 16.6347 4.03205 16.659 4.1096 16.6672C4.18715 16.6754 4.26557 16.6675 4.33989 16.6438H4.34833L4.35676 16.6404H4.36014C4.37419 16.637 4.38825 16.6336 4.40233 16.6303L4.50526 16.6067C4.67713 16.552 4.84561 16.4872 5.00983 16.4126C5.32602 16.2856 5.65381 16.1895 5.98858 16.1258C6.10502 16.1324 6.21726 16.1716 6.31258 16.2388L6.55726 16.1966C7.10696 17.8959 8.25941 19.3352 9.79726 20.2433L9.69601 20.4879C9.74369 20.5864 9.7613 20.6968 9.74664 20.8052C9.60489 21.1258 9.43445 21.4329 9.23701 21.7198C9.12775 21.8635 9.0269 22.0134 8.93495 22.1687L8.88433 22.275L8.86408 22.3206C8.82409 22.388 8.79862 22.463 8.78928 22.5409C8.77994 22.6187 8.78694 22.6977 8.80984 22.7726C8.83274 22.8476 8.87103 22.917 8.92227 22.9764C8.9735 23.0357 9.03655 23.0837 9.10739 23.1173C9.17823 23.1509 9.2553 23.1693 9.33367 23.1714C9.41204 23.1736 9.48999 23.1593 9.56254 23.1296C9.63509 23.0999 9.70064 23.0553 9.75501 22.9988C9.80937 22.9424 9.85135 22.8751 9.87827 22.8015V22.7998C9.90117 22.7517 9.9248 22.7038 9.94914 22.6564C10.0133 22.4876 10.0673 22.3172 10.1111 22.1417C10.2073 21.7873 10.3541 21.4464 10.5465 21.1326C10.6133 21.0698 10.6973 21.0287 10.7878 21.0145L10.9161 20.7833C12.5843 21.4248 14.4303 21.4296 16.1018 20.7968C16.1417 20.8685 16.181 20.9405 16.2199 21.0128C16.3348 21.0304 16.4379 21.0929 16.5068 21.1866C16.6667 21.4882 16.7967 21.8047 16.8949 22.1316C16.9388 22.3071 16.9928 22.4792 17.0569 22.6479L17.1075 22.7543L17.1261 22.7914C17.1587 22.8848 17.2154 22.9679 17.2905 23.0324C17.3655 23.0969 17.4562 23.1404 17.5535 23.1585C17.6508 23.1767 17.7511 23.1688 17.8443 23.1358C17.9376 23.1027 18.0205 23.0456 18.0846 22.9703C18.1619 22.8804 18.2091 22.7686 18.2194 22.6505C18.2297 22.5324 18.2026 22.414 18.142 22.3121L18.1217 22.2683L18.0694 22.1603C17.9774 22.0049 17.8766 21.8551 17.7673 21.7114C17.5727 21.4313 17.406 21.1329 17.2695 20.8204C17.2395 20.7081 17.2553 20.5886 17.3134 20.4879Z" fill="#BB6E2E" fill-opacity="0.7"/>
</g>
<defs>
<clipPath id="clip0_11_36">
<rect width="27" height="27" fill="white"/>
</clipPath>
</defs>
</svg>
