<svg width="16" height="16" viewBox="0 0 16 16" fill="none" xmlns="http://www.w3.org/2000/svg">
<g clip-path="url(#clip0_6_116)">
<path d="M1.2 13.6C0.87 13.6 0.5875 13.4825 0.3525 13.2475C0.1175 13.0125 0 12.73 0 12.4H2.8C2.47 12.4 2.1875 12.2825 1.9525 12.0475C1.7175 11.8125 1.6 11.53 1.6 11.2V3.60002C1.6 3.27002 1.7175 2.98752 1.9525 2.75252C2.1875 2.51752 2.47 2.40002 2.8 2.40002H13.2C13.53 2.40002 13.8125 2.51752 14.0475 2.75252C14.2825 2.98752 14.4 3.27002 14.4 3.60002V11.2C14.4 11.53 14.2825 11.8125 14.0475 12.0475C13.8125 12.2825 13.53 12.4 13.2 12.4H16C16 12.7334 15.8825 13.0167 15.6475 13.25C15.4125 13.4834 15.13 13.6 14.8 13.6H1.2ZM7.9965 13C8.1655 13 8.30833 12.9429 8.425 12.8285C8.54167 12.7142 8.6 12.5725 8.6 12.4035C8.6 12.2345 8.54283 12.0917 8.4285 11.975C8.31417 11.8584 8.1725 11.8 8.0035 11.8C7.8345 11.8 7.69167 11.8572 7.575 11.9715C7.45833 12.0859 7.4 12.2275 7.4 12.3965C7.4 12.5655 7.45717 12.7084 7.5715 12.825C7.68583 12.9417 7.8275 13 7.9965 13ZM2.8 11.2H13.2V3.60002H2.8V11.2Z" fill="#F5882C" fill-opacity="0.6"/>
</g>
<defs>
<clipPath id="clip0_6_116">
<rect width="16" height="16" fill="white"/>
</clipPath>
</defs>
</svg>
