<svg width="27" height="27" viewBox="0 0 27 27" fill="none" xmlns="http://www.w3.org/2000/svg">
<g clip-path="url(#clip0_11_21)">
<path d="M8.1 8.1L8.82961 7.57305C8.60105 7.25659 8.19454 7.12355 7.82311 7.24365C7.45166 7.36376 7.2 7.70963 7.2 8.1H8.1ZM13.5 25.2C7.03827 25.2 1.8 19.9618 1.8 13.5H0C0 20.9558 6.04415 27 13.5 27V25.2ZM25.2 13.5C25.2 19.9618 19.9618 25.2 13.5 25.2V27C20.9558 27 27 20.9558 27 13.5H25.2ZM13.5 1.8C19.9618 1.8 25.2 7.03827 25.2 13.5H27C27 6.04415 20.9558 0 13.5 0V1.8ZM13.5 0C6.04415 0 0 6.04415 0 13.5H1.8C1.8 7.03827 7.03827 1.8 13.5 1.8V0ZM9 21.6V8.1H7.2V21.6H9ZM7.37039 8.62695L19.0705 24.8269L20.5295 23.7731L8.82961 7.57305L7.37039 8.62695ZM18 7.2V18H19.8V7.2H18Z" fill="#BB6E2E" fill-opacity="0.7"/>
</g>
<defs>
<clipPath id="clip0_11_21">
<rect width="27" height="27" fill="white"/>
</clipPath>
</defs>
</svg>
