<svg width="27" height="27" viewBox="0 0 27 27" fill="none" xmlns="http://www.w3.org/2000/svg">
<g clip-path="url(#clip0_11_29)">
<path d="M20.4989 8.37756C20.4905 8.50835 20.4297 8.62394 20.3378 8.7041L20.3369 8.70494C20.2264 8.8256 20.0787 8.90997 19.9117 8.9395L19.9075 8.94034C19.8838 8.94372 19.856 8.94625 19.8281 8.94625C19.8273 8.94625 19.8256 8.94625 19.8248 8.94625C19.5615 8.94625 19.3354 8.78678 19.2392 8.55813L19.2375 8.55391C19.2122 8.36744 19.516 8.22653 19.829 8.18266C20.142 8.13878 20.4736 8.19194 20.4989 8.37756ZM12.1374 8.81125C12.0353 9.07366 11.7847 9.25675 11.4911 9.25675C11.4877 9.25675 11.4851 9.25675 11.4818 9.25675H11.4826C11.4522 9.25675 11.4236 9.25422 11.394 9.25084H11.3974C11.1772 9.21119 10.9899 9.08969 10.8658 8.9201L10.8641 8.91756C10.795 8.83825 10.7528 8.73278 10.7528 8.61888V8.61803C10.7629 8.55306 10.7992 8.49738 10.8498 8.46194L10.8506 8.4611C10.9789 8.39022 11.1325 8.34888 11.2961 8.34888C11.3662 8.34888 11.4345 8.35647 11.5003 8.37081L11.4944 8.36997C11.8277 8.41638 12.172 8.57416 12.1391 8.81125H12.1374ZM21.4338 15.26L21.3435 15.147L21.3064 15.1006C21.692 14.3868 21.9181 13.5371 21.9181 12.636C21.9181 12.2242 21.8709 11.8243 21.7814 11.4395L21.7882 11.475C21.7291 11.0928 21.6945 10.6515 21.6945 10.2026C21.6945 10.1967 21.6945 10.1908 21.6945 10.1849C21.7139 9.76216 21.7586 9.36728 21.8278 8.98L21.8194 9.03569C21.8945 8.64419 21.9375 8.19363 21.9375 7.73294C21.9375 7.68991 21.9375 7.64772 21.9367 7.60553V7.61228C21.9468 7.57094 21.9527 7.52453 21.9527 7.47559C21.9527 7.45281 21.951 7.43088 21.9493 7.40894V7.41147C21.6118 6.07835 20.9782 4.92325 20.1201 3.97488L20.126 3.98163C19.3573 3.0805 18.4123 2.35403 17.3416 1.85285L17.291 1.83175C17.8782 1.70603 18.5532 1.63431 19.2451 1.63431C19.3084 1.63431 19.3717 1.63516 19.435 1.636H19.4257C19.4636 1.63516 19.5075 1.63431 19.5522 1.63431C21.5587 1.63431 23.3457 2.57003 24.5017 4.02888L24.5118 4.04238C24.5354 4.07275 24.5591 4.10735 24.5793 4.14363L24.5818 4.14785C25.3446 5.57716 24.2907 10.7645 21.433 15.2617L21.4338 15.26ZM21.1925 7.86541C21.179 8.24931 21.1385 8.61297 21.0744 8.96819L21.0811 8.92178C21.0153 9.28038 20.9681 9.70731 20.9486 10.141L20.9478 10.1621C20.9478 10.1764 20.9478 10.1925 20.9478 10.2093C20.9478 10.6878 20.9832 11.1577 21.0524 11.6167L21.0457 11.5653C21.1174 11.8833 21.1587 12.2478 21.1587 12.6233C21.1587 13.2671 21.0372 13.883 20.8153 14.4475L20.8271 14.4138C20.763 14.3032 20.6964 14.1699 20.6381 14.0315L20.6289 14.0071C20.5732 13.8729 20.4525 13.6561 20.2863 13.3574C19.6375 12.193 18.117 9.46685 18.895 8.35478C19.2949 7.78272 20.3091 7.75825 21.1916 7.86625L21.1925 7.86541ZM20.5926 17.6403C20.5496 16.7636 20.8761 16.6716 21.222 16.5746C21.2698 16.5617 21.3174 16.5473 21.3646 16.5316C21.4068 16.5687 21.4532 16.605 21.5013 16.637L21.5055 16.6396C22.0286 16.8699 22.6378 17.0032 23.2791 17.0032C23.7786 17.0032 24.2587 16.9222 24.7076 16.772L24.6755 16.7813C24.3852 17.0285 24.0545 17.2403 23.6967 17.404L23.6706 17.415C23.1272 17.6377 22.4969 17.7769 21.8371 17.798H21.8287C21.7283 17.8132 21.6127 17.8225 21.4954 17.8225C21.1697 17.8225 20.8592 17.755 20.5782 17.6335L20.5934 17.6394L20.5926 17.6403ZM19.6535 19.3497C19.6358 19.5362 19.6155 19.7463 19.5885 19.9783L19.435 20.4407C19.4231 20.4744 19.4164 20.5132 19.4156 20.5537C19.4164 20.5765 19.4164 20.6027 19.4164 20.6288C19.4164 20.9283 19.3717 21.2186 19.289 21.4911L19.2941 21.47C19.1962 21.7983 19.1287 22.1788 19.1059 22.5711L19.1051 22.5846C19.0612 24.0055 17.9618 25.1555 16.5671 25.2796L16.5561 25.2804C14.958 25.623 14.6745 24.7564 14.4248 23.992C14.3995 23.9121 14.3725 23.8325 14.3438 23.7532C14.2088 23.2031 14.1311 22.5711 14.1311 21.9214C14.1311 21.6177 14.148 21.3182 14.1809 21.0228L14.1776 21.0591C14.1826 20.9511 14.1851 20.8237 14.1851 20.6963C14.1851 19.8306 14.0552 18.9953 13.8131 18.2089L13.8291 18.2688C13.8336 17.9595 13.8403 17.6462 13.8493 17.3289C13.8493 17.3264 13.8493 17.3222 13.8493 17.3188C13.8493 17.28 13.8434 17.2428 13.8325 17.2074L13.8333 17.2099C13.8215 17.1256 13.8055 17.0513 13.7844 16.9796L13.7869 16.9906C13.6679 16.551 13.3684 16.1966 12.9735 16.0084L12.9642 16.0042C12.8157 15.93 12.6402 15.8861 12.4538 15.8861C12.366 15.8861 12.2808 15.8954 12.199 15.9139L12.2066 15.9123C12.3146 15.5157 12.4259 15.1917 12.5542 14.8761L12.5322 14.9377L12.5879 14.7884C12.6504 14.6196 12.7288 14.445 12.8124 14.2602C13.2731 13.3118 13.5422 12.1972 13.5422 11.0193C13.5422 10.2279 13.4207 9.46516 13.1954 8.74797L13.2098 8.80113C13.0554 7.86625 12.2521 7.16172 11.2852 7.16172C11.1333 7.16172 10.9848 7.17944 10.8431 7.21235L10.8566 7.20981C10.1849 7.29756 9.57743 7.495 9.02477 7.78525L9.0543 7.77091C8.98455 7.80635 8.91565 7.84291 8.84758 7.8806C8.92436 6.06906 9.60358 4.42966 10.6878 3.14294L10.6777 3.15475C10.7772 3.05435 10.8819 2.959 10.9899 2.86956L10.9975 2.86366C11.0557 2.85185 11.1071 2.82822 11.151 2.79531L11.1502 2.79616C11.9036 2.24435 12.8495 1.91275 13.873 1.91275C13.9548 1.91275 14.0358 1.91444 14.116 1.91866L14.105 1.91781C14.5488 1.92456 14.9774 1.95494 15.3993 2.00894L15.3428 2.00303C17.0666 2.33463 18.5381 3.23744 19.5885 4.50306L19.5978 4.51488C20.2289 5.2481 20.7402 6.10703 21.0879 7.04444L21.1064 7.10266C20.8896 7.04444 20.6407 7.01069 20.3842 7.01069C19.5548 7.01069 18.8081 7.36169 18.2832 7.92278L18.2816 7.92447C17.2353 9.42044 18.8545 12.3246 19.6324 13.7202C19.775 13.9758 19.8982 14.1969 19.937 14.2906C20.1564 14.7977 20.4323 15.2339 20.7639 15.6212L20.758 15.6144C20.8314 15.7064 20.9022 15.795 20.9571 15.8726C20.5344 15.9941 19.775 16.2759 19.8442 17.6833C19.8315 17.8478 19.7995 18.1541 19.7564 18.5422C19.7109 18.7692 19.6737 19.0459 19.6526 19.3269L19.651 19.3505L19.6535 19.3497ZM11.8893 14.5285L11.8336 14.677C11.718 14.9538 11.5982 15.3056 11.4986 15.6659L11.4826 15.7342C10.7291 15.7233 10.0525 15.4009 9.57489 14.8896L9.57321 14.8879C9.03996 14.3252 8.71258 13.5633 8.71258 12.7246C8.71258 12.5575 8.72524 12.3938 8.75055 12.2335L8.74802 12.2512C8.82986 11.6437 8.87711 10.9426 8.87711 10.2296C8.87711 9.80603 8.86024 9.38669 8.82818 8.97156L8.83155 9.02641C8.82649 8.93613 8.82143 8.85681 8.81889 8.79438C9.49811 8.27885 10.3579 7.9675 11.2902 7.9675C11.4016 7.9675 11.5113 7.97172 11.6201 7.98016L11.6058 7.97931C12.0732 8.08816 12.4251 8.47544 12.4808 8.95216L12.4816 8.95722C12.6824 9.57147 12.798 10.2785 12.798 11.0118C12.798 12.0799 12.5525 13.0908 12.1154 13.9919L12.1331 13.9514C12.0446 14.148 11.961 14.3336 11.8893 14.5268V14.5285ZM9.68121 18.7337C9.50824 18.6899 9.35636 18.6258 9.21799 18.5422L9.22558 18.5464C9.37071 18.4848 9.54199 18.4334 9.71918 18.4005L9.73521 18.3979C11.0886 18.1195 11.297 17.9229 11.7535 17.3433C11.8581 17.2108 11.9762 17.0598 12.1407 16.8767C12.1745 16.8387 12.2015 16.7931 12.2175 16.7425L12.2184 16.74C12.3981 16.5805 12.5052 16.6244 12.6791 16.6961C12.8706 16.8016 13.0123 16.9796 13.0672 17.1914L13.068 17.1973C13.0874 17.2521 13.0992 17.3146 13.0992 17.3804C13.0992 17.4858 13.0697 17.5846 13.0191 17.6681L13.0208 17.6656C12.4766 18.4098 11.6066 18.8882 10.6254 18.8882C10.2879 18.8882 9.96302 18.8316 9.66011 18.727L9.68121 18.7337ZM3.34718 13.37C2.79789 11.6952 2.35071 9.70816 2.08661 7.66291L2.06889 7.495C2.01743 7.22331 1.98874 6.91028 1.98874 6.59135C1.98874 5.06753 2.65446 3.69981 3.71083 2.76325L3.71589 2.75903C5.6523 1.38963 8.81889 2.18866 10.1562 2.6215L10.1461 2.63163C8.85096 4.21113 8.06543 6.253 8.06543 8.47713C8.06543 8.55306 8.06627 8.629 8.06796 8.70494V8.69397C8.06796 8.78088 8.07471 8.90406 8.08483 9.07281C8.11268 9.41875 8.12871 9.82206 8.12871 10.2296C8.12871 10.9063 8.08483 11.5728 7.99877 12.2268L8.00721 12.15C7.97936 12.3238 7.96418 12.5246 7.96418 12.7288C7.96418 13.7674 8.37086 14.7116 9.0349 15.4094L9.03321 15.4077C9.11815 15.4966 9.20674 15.5801 9.29899 15.6583C8.93365 16.0498 8.13883 16.9155 7.2934 17.933C6.69518 18.6528 6.28174 18.5144 6.14589 18.4697C5.56793 18.1592 5.11483 17.6774 4.84821 17.0935L4.84061 17.0749C4.26349 16.0186 3.75555 14.7901 3.38093 13.5042L3.34802 13.3717L3.34718 13.37ZM25.688 16.3713C25.672 16.3232 25.6517 16.2818 25.6272 16.2438L25.6289 16.2464C25.4821 15.9688 25.1261 15.8861 24.5666 16.0017C22.8235 16.3611 22.1485 16.1401 21.9038 15.9814C23.2681 13.9126 24.3658 11.5163 25.0687 8.95638L25.11 8.78003C25.3961 7.67219 25.9512 5.065 25.2391 3.79094C25.1893 3.69644 25.1362 3.61544 25.0771 3.5395L25.0796 3.54288C23.7609 1.89335 21.7485 0.846252 19.4915 0.846252C19.4274 0.846252 19.3632 0.847096 19.3 0.848784H19.3092C19.2738 0.84794 19.2325 0.84794 19.1903 0.84794C18.058 0.84794 16.9687 1.03356 15.952 1.37528L16.0237 1.35419C15.8431 1.32044 15.6617 1.29175 15.4795 1.26813C15.0677 1.18966 14.591 1.14072 14.1033 1.13313H14.0966C14.0265 1.12975 13.9447 1.12806 13.862 1.12806C12.7525 1.12806 11.7206 1.4605 10.8608 2.03172L10.881 2.01906C9.97736 1.68072 5.83202 0.284315 3.26618 2.10175C2.00983 3.17331 1.21924 4.75703 1.21924 6.52638C1.21924 6.8681 1.24877 7.20306 1.3053 7.52875L1.30024 7.49416C1.58289 9.7706 2.04189 11.8192 2.67724 13.7894L2.61058 13.5498C3.02655 14.9976 3.54124 16.2506 4.17321 17.431L4.12174 17.3264C4.48708 18.1566 5.11905 18.8148 5.90711 19.2037L5.92905 19.2138C6.0708 19.2552 6.23364 19.2797 6.40239 19.2797C7.02846 19.2797 7.57689 18.9498 7.88402 18.4536L7.88824 18.446C8.73283 17.4302 9.56477 16.5206 9.93855 16.119C10.3621 16.3544 10.8641 16.4995 11.3991 16.5164H11.4041L11.405 16.5206C11.3161 16.6263 11.2292 16.7338 11.1443 16.8429C10.7865 17.2968 10.7123 17.3905 9.56224 17.6276C9.23486 17.6951 8.3658 17.874 8.35315 18.4832C8.35315 18.4865 8.35315 18.4899 8.35315 18.4941C8.35315 18.6182 8.38943 18.7338 8.45186 18.8308L8.45018 18.8283C8.71343 19.1615 9.08383 19.4003 9.50824 19.4931L9.5209 19.4957C9.85755 19.6053 10.2457 19.6686 10.6473 19.6686C11.5754 19.6686 12.4242 19.3328 13.0807 18.7759L13.0756 18.7802C13.0554 19.1328 13.0444 19.5463 13.0444 19.9623C13.0444 21.4413 13.1887 22.8875 13.4629 24.2865L13.4401 24.1456C13.7624 25.304 14.8036 26.1427 16.0422 26.1537H16.0439C16.3553 26.1512 16.6565 26.1149 16.9467 26.0491L16.9189 26.0541C18.5381 25.9098 19.8138 24.6155 19.9286 23.0006L19.9294 22.9905C20.088 22.0725 20.353 19.9589 20.4972 18.6663C20.504 18.6114 20.5259 18.5625 20.558 18.522L20.5571 18.5228C20.558 18.522 20.6306 18.473 21.0077 18.5549L21.0541 18.5625L21.3216 18.5861L21.3376 18.5869C21.4178 18.5903 21.5123 18.5928 21.6068 18.5928C22.4708 18.5928 23.296 18.4241 24.0494 18.117L24.0064 18.1322C24.6856 17.8174 25.9099 17.0437 25.688 16.3713Z" fill="#BB6E2E" fill-opacity="0.7" stroke="#BB6E2E" stroke-opacity="0.7" stroke-width="0.6"/>
</g>
<defs>
<clipPath id="clip0_11_29">
<rect width="27" height="27" fill="white"/>
</clipPath>
</defs>
</svg>
