<svg width="27" height="27" viewBox="0 0 27 27" fill="none" xmlns="http://www.w3.org/2000/svg">
<g clip-path="url(#clip0_11_23)">
<path d="M14.3865 17.9584L18.7425 15.4429V10.4141L14.3865 12.9285V17.9584ZM14.8028 18.1991L18.7425 20.475V15.9266L14.8028 18.1991ZM18.5051 9.52088V4.97251L14.5654 7.24501L18.5051 9.51976V9.52088ZM14.1491 7.48688L9.792 10.0024L14.1491 12.5179L18.5051 10.0024L14.1491 7.48688ZM13.7318 7.24613L9.792 4.97251V9.52088L13.7318 7.24613ZM19.1599 10.6549V15.2021L23.0985 12.9285L19.1599 10.6549ZM13.9118 17.9584V12.9285L9.55575 10.413V15.4429L13.9118 17.9584ZM9.13838 10.6538L5.1975 12.9285L9.13725 15.2021V10.6538H9.13838ZM9.55463 15.9255V20.4739L13.4944 18.1991L9.55575 15.9255H9.55463ZM22.5079 0.150757H4.47638C2.01375 0.150757 0 2.13976 0 4.57201V22.383C0 24.8141 2.01375 26.8043 4.47638 26.8043H16.8244L13.4921 18.8078L11.0734 23.8568H4.4775C3.6675 23.8568 2.98463 23.1818 2.98463 22.383V4.57201C2.98463 3.77326 3.66863 3.09826 4.4775 3.09826H22.509C23.3179 3.09826 24.0019 3.77326 24.0019 4.57201V22.383C24.0019 23.1818 23.3179 23.8568 22.509 23.8568H18.5963L19.8248 26.8043H22.509C24.9705 26.8043 26.9854 24.8141 26.9854 22.383V4.57201C26.9854 2.13976 24.9705 0.150757 22.5079 0.150757Z" fill="#BB6E2E" fill-opacity="0.7"/>
</g>
<defs>
<clipPath id="clip0_11_23">
<rect width="27" height="27" fill="white"/>
</clipPath>
</defs>
</svg>
