<svg width="27" height="27" viewBox="0 0 27 27" fill="none" xmlns="http://www.w3.org/2000/svg">
<g clip-path="url(#clip0_11_31)">
<path d="M25.8689 10.7619H17.2634C16.9769 10.7637 16.7016 10.6507 16.499 10.4481C16.2964 10.2455 16.1834 9.97021 16.1852 9.6837V1.07825C16.1852 0.792908 16.0714 0.519349 15.869 0.318215C15.6666 0.11708 15.3924 0.00498641 15.107 0.00678102H11.8859C11.6005 0.00498641 11.3263 0.11708 11.1239 0.318215C10.9215 0.519349 10.8077 0.792908 10.8077 1.07825V9.6837C10.8095 9.97021 10.6965 10.2455 10.4939 10.4481C10.2913 10.6507 10.016 10.7637 9.72945 10.7619H6.5083C6.2218 10.7637 5.9465 10.6507 5.7439 10.4481C5.5413 10.2455 5.42829 9.97021 5.4301 9.6837V1.07825C5.4319 0.791742 5.31889 0.516444 5.11629 0.313847C4.91369 0.111251 4.6384 -0.00176547 4.35189 2.08583e-05H1.124C0.838659 2.08583e-05 0.5651 0.113848 0.363966 0.316247C0.162832 0.518646 0.0507378 0.792913 0.0525111 1.07825V25.8231C0.0507248 26.1096 0.163741 26.3849 0.366337 26.5875C0.568934 26.7901 0.844232 26.9031 1.13074 26.9014H25.8689C26.1554 26.9031 26.4307 26.7901 26.6333 26.5875C26.8359 26.3849 26.9489 26.1096 26.9471 25.8231V11.8603C26.9544 11.5703 26.8438 11.2898 26.6406 11.0828C26.4374 10.8758 26.159 10.76 25.8689 10.7619ZM21.5426 19.8997C21.5444 20.328 21.3755 20.7394 21.0732 21.0429C20.771 21.3464 20.3603 21.517 19.932 21.517H17.7756C17.3473 21.517 16.9366 21.3464 16.6343 21.0429C16.3321 20.7394 16.1632 20.328 16.165 19.8997V17.75C16.1632 17.3217 16.3321 16.9103 16.6343 16.6068C16.9366 16.3033 17.3473 16.1327 17.7756 16.1327H19.932C20.3603 16.1327 20.771 16.3033 21.0732 16.6068C21.3755 16.9103 21.5444 17.3217 21.5426 17.75V19.8997Z" fill="#BB6E2E" fill-opacity="0.7"/>
</g>
<defs>
<clipPath id="clip0_11_31">
<rect width="27" height="27" fill="white"/>
</clipPath>
</defs>
</svg>
