<svg width="27" height="27" viewBox="0 0 27 27" fill="none" xmlns="http://www.w3.org/2000/svg">
<g clip-path="url(#clip0_11_18)">
<path d="M13.5 11.3738C13.9151 11.3738 14.321 11.4966 14.6664 11.7268C15.0119 11.957 15.2815 12.2842 15.4414 12.6673C15.6012 13.0504 15.6442 13.4723 15.5648 13.8797C15.4855 14.2872 15.2873 14.6621 14.9953 14.9572C14.7034 15.2522 14.3306 15.4544 13.924 15.5381C13.5174 15.6218 13.0952 15.5833 12.7104 15.4275C12.3256 15.2717 11.9955 15.0056 11.7617 14.6626C11.5278 14.3196 11.4007 13.9151 11.3962 13.5C11.3948 13.2223 11.448 12.9469 11.5529 12.6898C11.6579 12.4326 11.8124 12.1986 12.0078 12.0012C12.2031 11.8037 12.4354 11.6467 12.6915 11.5391C12.9475 11.4314 13.2223 11.3752 13.5 11.3738ZM8.29125 22.5C9 22.9275 10.5412 22.275 12.3412 20.5875C11.7396 19.9038 11.1727 19.1904 10.6425 18.45C9.7351 18.3484 8.83381 18.1982 7.9425 18C7.36875 20.4075 7.5825 22.0613 8.29125 22.5ZM9.09 16.0425L8.76375 15.4688C8.63657 15.7847 8.52764 16.1078 8.4375 16.4363C8.74125 16.5038 9.07875 16.56 9.4275 16.6163L9.09 16.0425ZM16.4475 15.1875L17.3587 13.5L16.4475 11.8125C16.11 11.2163 15.75 10.6875 15.4237 10.1588C14.8162 10.125 14.175 10.125 13.5 10.125C12.825 10.125 12.1837 10.125 11.5762 10.125C11.25 10.6538 10.89 11.1825 10.5525 11.7788L9.64125 13.5L10.5525 15.1875C10.89 15.7838 11.25 16.3125 11.5762 16.8413C12.1837 16.8413 12.825 16.8413 13.5 16.8413C14.175 16.8413 14.8162 16.8413 15.4237 16.8413C15.75 16.3125 16.11 15.7838 16.4475 15.1875ZM13.5 7.62751C13.2862 7.87501 13.0612 8.13376 12.8362 8.43751H14.1637C13.9387 8.13376 13.7137 7.87501 13.5 7.62751ZM13.5 19.3725C13.7137 19.125 13.9387 18.8663 14.1637 18.5625H12.8362C13.0612 18.8663 13.2862 19.125 13.5 19.3725ZM18.6975 4.50001C18 4.07251 16.4475 4.72501 14.6587 6.41251C15.2604 7.09617 15.8273 7.80957 16.3575 8.55001C17.2641 8.63677 18.1654 8.77196 19.0575 8.95501C19.6312 6.54751 19.4175 4.89376 18.6975 4.45501M17.91 10.9125L18.2362 11.4863C18.3634 11.1703 18.4724 10.8472 18.5625 10.5188C18.2587 10.4513 17.9212 10.395 17.5725 10.3388L17.91 10.9125ZM19.5412 3.03751C21.195 3.98251 21.375 6.46876 20.6662 9.37126C23.5237 10.215 25.5825 11.6213 25.5825 13.5113C25.5825 15.4013 23.5237 16.8075 20.6662 17.6513C21.3637 20.5538 21.1837 23.04 19.5412 23.985C17.8987 24.93 15.66 23.85 13.5 21.7913C11.34 23.85 9.10125 24.93 7.4475 23.985C5.79375 23.04 5.625 20.61 6.3225 17.6513C3.465 16.8075 1.40625 15.4013 1.40625 13.5113C1.40625 11.6213 3.465 10.2038 6.3225 9.36001C5.625 6.45751 5.805 3.97126 7.4475 3.02626C9.09 2.08126 11.34 3.16126 13.5 5.22001C15.66 3.16126 17.8987 2.08126 19.5412 3.02626M19.215 13.5C19.6057 14.3282 19.9512 15.1769 20.25 16.0425C22.6125 15.3338 23.94 14.3213 23.94 13.5C23.94 12.6788 22.5787 11.6663 20.25 10.9575C19.9512 11.8231 19.6057 12.6718 19.215 13.5ZM7.785 13.5C7.39428 12.6718 7.04878 11.8231 6.75 10.9575C4.3875 11.6663 3.06 12.6788 3.06 13.5C3.06 14.3213 4.42125 15.3338 6.75 16.0425C7.04878 15.1769 7.39428 14.3282 7.785 13.5ZM17.91 16.0425L17.5725 16.6163C17.9212 16.6163 18.2587 16.5038 18.5625 16.4363C18.4724 16.1078 18.3634 15.7847 18.2362 15.4688L17.91 16.0425ZM14.625 20.5875C16.4137 22.275 18 22.9275 18.6637 22.5C19.3275 22.0725 19.5975 20.4525 19.0237 18C18.1316 18.1831 17.2303 18.3183 16.3237 18.405C15.7948 19.1608 15.2278 19.8892 14.625 20.5875ZM9.09 10.9575L9.4275 10.3838C9.07875 10.3838 8.74125 10.4963 8.4375 10.5638C8.52764 10.8922 8.63657 11.2153 8.76375 11.5313L9.09 10.9575ZM12.375 6.41251C10.5525 4.72501 9 4.07251 8.29125 4.50001C7.5825 4.92751 7.36875 6.54751 7.9425 9.00001C8.83463 8.81696 9.73592 8.68177 10.6425 8.59501C11.1824 7.83844 11.7607 7.10998 12.375 6.41251Z" fill="#BB6E2E" fill-opacity="0.7"/>
</g>
<defs>
<clipPath id="clip0_11_18">
<rect width="27" height="27" fill="white"/>
</clipPath>
</defs>
</svg>
