<svg width="27" height="27" viewBox="0 0 27 27" fill="none" xmlns="http://www.w3.org/2000/svg">
<g clip-path="url(#clip0_11_25)">
<path fill-rule="evenodd" clip-rule="evenodd" d="M4.61194 23.6191C5.10637 24.0182 5.832 23.9439 6.23025 23.4487C6.63103 22.9551 6.55594 22.2294 6.0615 21.8287C5.5679 21.4287 4.84312 21.5055 4.4415 21.9991C4.06181 22.4674 4.11075 23.1432 4.53853 23.555L4.31409 23.3575C1.66387 20.8929 0 17.3787 0 13.4814C0 6.048 6.048 0 13.4831 0C17.2631 0 20.6803 1.56684 23.1314 4.08038C23.6883 3.32269 24.1709 2.47556 24.5658 1.53647C26.2837 6.69853 27.2936 11.0371 26.9241 14.4543C26.4246 21.4355 20.5892 26.9671 13.4831 26.9671C10.1824 26.9671 7.15837 25.7723 4.81275 23.7971L4.61194 23.6191ZM24.5076 19.4155C27.891 14.9133 26.0052 7.63256 24.4358 2.97928C23.0377 5.89275 19.5944 8.12109 16.621 8.82647C13.8341 9.49134 11.3678 8.94628 8.7885 9.93853C2.90756 12.1998 3.00037 19.213 6.24037 20.7892C6.24206 20.7892 6.43444 20.8938 6.4319 20.8904C6.4319 20.8887 11.194 19.9437 13.8265 18.9717C17.674 17.5508 21.8978 14.0484 23.2875 9.97988C22.5475 14.2113 18.9152 18.2824 15.266 20.1521C13.3237 21.1494 11.8133 21.3713 8.61722 22.4775C8.22572 22.6108 7.91859 22.7424 7.91859 22.7424C8.72859 22.6074 9.53606 22.5636 9.53606 22.5636C14.0864 22.3484 21.1857 23.8427 24.5084 19.4164L24.5076 19.4155Z" fill="#BB6E2E" fill-opacity="0.7"/>
</g>
<defs>
<clipPath id="clip0_11_25">
<rect width="27" height="27" fill="white"/>
</clipPath>
</defs>
</svg>
